# xmcd CD database file
#
# Track frame offsets:
#	150
#	14957
#	29100
#	42092
#	56570
#	72130
#	89945
#	102130
#	114307
#	129912
#	143770
#	160592
#
# Disc length: 2304 seconds
#
# Revision: 0
# Processed by: cddbd v1.5.1PL0 Copyright (c) Steve Scherf et al.
# Submitted via: CDex 1.51
#
DISCID=a508fe0c
DTITLE=Patsy Riggir - You Remind Me Of A Love Song
DYEAR=1985
DGENRE=Country
TTITLE0=You Remind Me Of a Love Song
TTITLE1=Old Loves Never Die
TTITLE2=I Think It's Time That We Fell In Love
TTITLE3=I Love You Because
TTITLE4=Fall Back On Love
TTITLE5=You're Not The One Who's Lonely
TTITLE6=I Fall In Love All Over Again
TTITLE7=That's My Desire
TTITLE8=Pardon Me
TTITLE9=If He Justs Helps Me Get Over You
TTITLE10=Scarlet Ribbons
TTITLE11=Just One Time
EXTD=YEAR: 1985
EXTT0=
EXTT1=
EXTT2=
EXTT3=
EXTT4=
EXTT5=
EXTT6=
EXTT7=
EXTT8=
EXTT9=
EXTT10=
EXTT11=
PLAYORDER=
